<svg width="1600" height="520" viewBox="0 0 1600 520" fill="none" xmlns="http://www.w3.org/2000/svg">
  <defs>
    <filter id="markShadow" x="28" y="26" width="464" height="492" filterUnits="userSpaceOnUse" color-interpolation-filters="sRGB">
      <feFlood flood-opacity="0" result="BackgroundImageFix"/>
      <feColorMatrix in="SourceAlpha" type="matrix" values="0 0 0 0 0 0 0 0 0 0 0 0 0 0 0 0 0 0 127 0" result="hardAlpha"/>
      <feOffset dy="16"/>
      <feGaussianBlur stdDeviation="22"/>
      <feComposite in2="hardAlpha" operator="out"/>
      <feColorMatrix type="matrix" values="0 0 0 0 0.015 0 0 0 0 0.035 0 0 0 0 0.07 0 0 0 0.18 0"/>
      <feBlend mode="normal" in2="BackgroundImageFix" result="effect1_dropShadow_2_1"/>
      <feBlend mode="normal" in="SourceGraphic" in2="effect1_dropShadow_2_1" result="shape"/>
    </filter>
  </defs>

  <rect width="1600" height="520" fill="#F8FBFF"/>

  <g filter="url(#markShadow)">
    <rect x="96" y="72" width="328" height="376" rx="88" fill="#0E1B2C"/>
    <rect x="126" y="102" width="268" height="316" rx="62" fill="#1479D4"/>

    <rect x="166" y="158" width="52" height="154" rx="15" fill="#FFFFFF"/>
    <rect x="166" y="158" width="118" height="34" rx="17" fill="#FFFFFF"/>
    <rect x="166" y="218" width="102" height="34" rx="17" fill="#FFFFFF"/>
    <rect x="166" y="278" width="118" height="34" rx="17" fill="#FFFFFF"/>

    <rect x="290" y="158" width="52" height="154" rx="15" fill="#FFFFFF"/>
    <rect x="290" y="158" width="86" height="34" rx="17" fill="#FFFFFF"/>
    <rect x="290" y="218" width="74" height="34" rx="17" fill="#FFFFFF"/>
    <rect x="290" y="278" width="86" height="34" rx="17" fill="#FFFFFF"/>

    <rect x="170" y="348" width="12" height="40" rx="6" fill="#FFFFFF" fill-opacity="0.86"/>
    <rect x="196" y="348" width="7" height="40" rx="3.5" fill="#FFFFFF" fill-opacity="0.78"/>
    <rect x="220" y="348" width="20" height="40" rx="8" fill="#FFFFFF" fill-opacity="0.92"/>
    <rect x="258" y="348" width="9" height="40" rx="4.5" fill="#FFFFFF" fill-opacity="0.8"/>
    <rect x="286" y="348" width="24" height="40" rx="8" fill="#FFFFFF" fill-opacity="0.94"/>
    <rect x="328" y="348" width="31" height="40" rx="9" fill="#FFFFFF" fill-opacity="0.88"/>
  </g>

  <text x="540" y="237" fill="#0E1B2C" font-family="SF Pro Display, Inter, Helvetica Neue, Arial, sans-serif" font-size="124" font-weight="760" letter-spacing="0">EEAccess</text>
  <text x="546" y="320" fill="#1479D4" font-family="SF Pro Text, Inter, Helvetica Neue, Arial, sans-serif" font-size="40" font-weight="650" letter-spacing="2">ELBAEVERYWHERE</text>
  <rect x="546" y="360" width="514" height="8" rx="4" fill="#34D6C3"/>
</svg>
