<svg width="1024" height="1024" viewBox="0 0 1024 1024" fill="none" xmlns="http://www.w3.org/2000/svg">
  <defs>
    <filter id="shadow" x="142" y="130" width="740" height="804" filterUnits="userSpaceOnUse" color-interpolation-filters="sRGB">
      <feFlood flood-opacity="0" result="BackgroundImageFix"/>
      <feColorMatrix in="SourceAlpha" type="matrix" values="0 0 0 0 0 0 0 0 0 0 0 0 0 0 0 0 0 0 127 0" result="hardAlpha"/>
      <feOffset dy="28"/>
      <feGaussianBlur stdDeviation="34"/>
      <feComposite in2="hardAlpha" operator="out"/>
      <feColorMatrix type="matrix" values="0 0 0 0 0.015 0 0 0 0 0.035 0 0 0 0 0.07 0 0 0 0.42 0"/>
      <feBlend mode="normal" in2="BackgroundImageFix" result="effect1_dropShadow_1_1"/>
      <feBlend mode="normal" in="SourceGraphic" in2="effect1_dropShadow_1_1" result="shape"/>
    </filter>
  </defs>

  <rect width="1024" height="1024" fill="#0E1B2C"/>
  <circle cx="797" cy="225" r="132" fill="#F4C84E" fill-opacity="0.16"/>
  <circle cx="190" cy="820" r="156" fill="#34D6C3" fill-opacity="0.12"/>

  <g filter="url(#shadow)" transform="rotate(-7 512 512)">
    <rect x="238" y="202" width="548" height="620" rx="112" fill="#F8FBFF"/>
    <rect x="280" y="244" width="464" height="536" rx="82" fill="#1479D4"/>

    <rect x="346" y="338" width="92" height="270" rx="24" fill="#FFFFFF"/>
    <rect x="346" y="338" width="206" height="58" rx="29" fill="#FFFFFF"/>
    <rect x="346" y="444" width="176" height="58" rx="29" fill="#FFFFFF"/>
    <rect x="346" y="550" width="206" height="58" rx="29" fill="#FFFFFF"/>

    <rect x="560" y="338" width="92" height="270" rx="24" fill="#FFFFFF"/>
    <rect x="560" y="338" width="154" height="58" rx="29" fill="#FFFFFF"/>
    <rect x="560" y="444" width="128" height="58" rx="29" fill="#FFFFFF"/>
    <rect x="560" y="550" width="154" height="58" rx="29" fill="#FFFFFF"/>

    <rect x="350" y="662" width="22" height="64" rx="11" fill="#FFFFFF" fill-opacity="0.88"/>
    <rect x="392" y="662" width="12" height="64" rx="6" fill="#FFFFFF" fill-opacity="0.82"/>
    <rect x="424" y="662" width="34" height="64" rx="12" fill="#FFFFFF" fill-opacity="0.92"/>
    <rect x="480" y="662" width="16" height="64" rx="8" fill="#FFFFFF" fill-opacity="0.8"/>
    <rect x="522" y="662" width="42" height="64" rx="13" fill="#FFFFFF" fill-opacity="0.94"/>
    <rect x="584" y="662" width="14" height="64" rx="7" fill="#FFFFFF" fill-opacity="0.82"/>
    <rect x="622" y="662" width="52" height="64" rx="14" fill="#FFFFFF" fill-opacity="0.9"/>
  </g>
</svg>
