<svg width="1600" height="520" viewBox="0 0 1600 520" fill="none" xmlns="http://www.w3.org/2000/svg">
  <rect width="1600" height="520" fill="#001A24"/>
  <g transform="translate(64 64) scale(0.36)">
  
  <defs>
    <filter id="softGlow" x="-25%" y="-25%" width="150%" height="150%" color-interpolation-filters="sRGB">
      <feDropShadow dx="0" dy="0" stdDeviation="14" flood-color="#22C55E" flood-opacity="0.52"/>
    </filter>
    <filter id="lift" x="-20%" y="-20%" width="140%" height="140%" color-interpolation-filters="sRGB">
      <feDropShadow dx="0" dy="22" stdDeviation="24" flood-color="#000000" flood-opacity="0.34"/>
    </filter>
  </defs>
  <rect width="1024" height="1024" fill="#001A24"/>
  <rect x="82" y="82" width="860" height="860" rx="178" fill="#001A24" stroke="#9AF2BF" stroke-width="24" filter="url(#softGlow)"/>
  <path d="M106 720C250 720 276 632 410 676C558 724 640 826 918 764" stroke="#9AF2BF" stroke-width="26" stroke-linecap="round" opacity="0.95"/>
  <path d="M118 310C248 250 302 172 416 202C532 233 590 132 714 188C805 229 816 301 924 326" stroke="#22C55E" stroke-width="18" stroke-linecap="round" opacity="0.62"/>
  
  <g filter="url(#lift)">
    <rect x="232" y="214" width="560" height="596" rx="112" fill="#0C241C" stroke="#9AF2BF" stroke-width="18"/>
    <rect x="288" y="270" width="448" height="484" rx="72" fill="#001A24"/>
    
  <g transform="translate(334 354) scale(1.03)">
    <rect x="0" y="0" width="78" height="242" rx="20" fill="#FFFFFF"/>
    <rect x="0" y="0" width="190" height="56" rx="28" fill="#FFFFFF"/>
    <rect x="0" y="93" width="158" height="56" rx="28" fill="#FFFFFF"/>
    <rect x="0" y="186" width="190" height="56" rx="28" fill="#FFFFFF"/>
    <rect x="226" y="0" width="78" height="242" rx="20" fill="#22C55E"/>
    <rect x="226" y="0" width="172" height="56" rx="28" fill="#22C55E"/>
    <rect x="226" y="93" width="142" height="56" rx="28" fill="#22C55E"/>
    <rect x="226" y="186" width="172" height="56" rx="28" fill="#22C55E"/>
  </g>
    
  <g fill="#22C55E">
    <rect x="646" y="638" width="62" height="62" rx="14"/>
    <rect x="732" y="638" width="34" height="34" rx="10"/>
    <rect x="646" y="724" width="34" height="34" rx="10"/>
    <rect x="724" y="716" width="62" height="62" rx="14"/>
  </g>
    <circle cx="706" cy="316" r="28" fill="#9AF2BF"/>
  </g>
</g>
  <text x="528" y="238" fill="#FFFFFF" font-family="Helvetica, Arial, sans-serif" font-size="126" font-weight="700">EEAccess</text>
  <text x="536" y="316" fill="#9AF2BF" font-family="Helvetica, Arial, sans-serif" font-size="34" font-weight="700">ELBAEVERYWHERE</text>
  <text x="536" y="382" fill="#22C55E" font-family="Helvetica, Arial, sans-serif" font-size="30" font-weight="700">WATCH-READY WALLET</text>
</svg>