<svg width="1024" height="1024" viewBox="0 0 1024 1024" fill="none" xmlns="http://www.w3.org/2000/svg">
  
  <defs>
    <filter id="softGlow" x="-25%" y="-25%" width="150%" height="150%" color-interpolation-filters="sRGB">
      <feDropShadow dx="0" dy="0" stdDeviation="14" flood-color="#22C55E" flood-opacity="0.52"/>
    </filter>
    <filter id="lift" x="-20%" y="-20%" width="140%" height="140%" color-interpolation-filters="sRGB">
      <feDropShadow dx="0" dy="22" stdDeviation="24" flood-color="#000000" flood-opacity="0.34"/>
    </filter>
  </defs>
  <rect width="1024" height="1024" fill="#001A24"/>
  <rect x="82" y="82" width="860" height="860" rx="178" fill="#001A24" stroke="#9AF2BF" stroke-width="24" filter="url(#softGlow)"/>
  <path d="M106 720C250 720 276 632 410 676C558 724 640 826 918 764" stroke="#9AF2BF" stroke-width="26" stroke-linecap="round" opacity="0.95"/>
  <path d="M118 310C248 250 302 172 416 202C532 233 590 132 714 188C805 229 816 301 924 326" stroke="#22C55E" stroke-width="18" stroke-linecap="round" opacity="0.62"/>
  
  <g filter="url(#lift)" transform="rotate(-4 512 512)">
    <rect x="238" y="276" width="548" height="470" rx="84" fill="#FFFFFF"/>
    <rect x="274" y="312" width="476" height="398" rx="58" fill="#0F3324"/>
    
  <g transform="translate(336 374) scale(1.05)">
    <rect x="0" y="0" width="78" height="242" rx="20" fill="#FFFFFF"/>
    <rect x="0" y="0" width="190" height="56" rx="28" fill="#FFFFFF"/>
    <rect x="0" y="93" width="158" height="56" rx="28" fill="#FFFFFF"/>
    <rect x="0" y="186" width="190" height="56" rx="28" fill="#FFFFFF"/>
    <rect x="226" y="0" width="78" height="242" rx="20" fill="#22C55E"/>
    <rect x="226" y="0" width="172" height="56" rx="28" fill="#22C55E"/>
    <rect x="226" y="93" width="142" height="56" rx="28" fill="#22C55E"/>
    <rect x="226" y="186" width="172" height="56" rx="28" fill="#22C55E"/>
  </g>
    <g opacity="1"><rect x="344" y="650" width="20" height="54" rx="10" fill="#9AF2BF"/><rect x="384" y="650" width="10" height="54" rx="5" fill="#9AF2BF"/><rect x="408" y="650" width="32" height="54" rx="10" fill="#9AF2BF"/><rect x="460" y="650" width="14" height="54" rx="7" fill="#9AF2BF"/><rect x="488" y="650" width="42" height="54" rx="10" fill="#9AF2BF"/><rect x="550" y="650" width="12" height="54" rx="6" fill="#9AF2BF"/><rect x="576" y="650" width="24" height="54" rx="10" fill="#9AF2BF"/><rect x="620" y="650" width="46" height="54" rx="10" fill="#9AF2BF"/><rect x="680" y="650" width="16" height="54" rx="8" fill="#9AF2BF"/><rect x="716" y="650" width="30" height="54" rx="10" fill="#9AF2BF"/></g>
  </g>
</svg>